<?xml version="1.0" encoding="utf-8"?>
<!-- Generator: Adobe Illustrator 19.0.0, SVG Export Plug-In . SVG Version: 6.00 Build 0)  -->
<svg version="1.1" id="Layer_1" xmlns="http://www.w3.org/2000/svg" xmlns:xlink="http://www.w3.org/1999/xlink" x="0px" y="0px"
	 viewBox="-84 -42.9 256 256" style="enable-background:new -84 -42.9 256 256;" xml:space="preserve">
<desc>Created with Fabric.js 1.7.22</desc>
<g transform="translate(128 128) scale(0.72 0.72)">
	<g transform="translate(-175.05 -175.05000000000004) scale(3.89 3.89)">
		<path d="M47.5,57.6h-65c-4.5,0-8.2-3.7-8.2-8.2V4.8c0-4.5,3.7-8.2,8.2-8.2h65c4.5,0,8.2,3.7,8.2,8.2v44.6
			C55.7,53.9,52,57.6,47.5,57.6z M-17.5,2c-1.6,0-2.8,1.3-2.8,2.8v44.6c0,1.6,1.3,2.8,2.8,2.8h65c1.6,0,2.8-1.3,2.8-2.8V4.8
			c0-1.6-1.3-2.8-2.8-2.8C47.5,2-17.5,2-17.5,2z"/>
		<path d="M15,36.5c-4.9,0-9.6-2.1-12.9-5.7L-23.4,2.8l4-3.7L6.2,27.2c2.3,2.5,5.5,3.9,8.9,3.9s6.6-1.4,8.9-3.9L49.5-0.9l4,3.7
			L27.9,30.8C24.6,34.4,19.9,36.5,15,36.5z"/>
		<rect x="-26.6" y="38.1" transform="matrix(-0.7053 0.7089 -0.7089 -0.7053 13.697 75.9068)" width="35.3" height="5.4"/>
		<rect x="36.3" y="23.2" transform="matrix(-0.709 0.7053 -0.7053 -0.709 95.3962 42.235)" width="5.4" height="35.3"/>
	</g>
</g>
</svg>
